<?xml version="1.0" standalone="no"?>
<!DOCTYPE svg PUBLIC "-//W3C//DTD SVG 20010904//EN"
 "http://www.w3.org/TR/2001/REC-SVG-20010904/DTD/svg10.dtd">
<svg version="1.0" xmlns="http://www.w3.org/2000/svg"
 width="512.000000pt" height="512.000000pt" viewBox="0 0 512.000000 512.000000"
 preserveAspectRatio="xMidYMid meet">
<metadata>
Created by potrace 1.14, written by Peter Selinger 2001-2017
</metadata>
<g transform="translate(0.000000,512.000000) scale(0.100000,-0.100000)"
fill="#000000" stroke="none">
<path d="M1800 4060 c-193 -31 -285 -50 -405 -86 -44 -13 -98 -29 -120 -36
-74 -21 -239 -89 -340 -140 -213 -106 -400 -258 -498 -406 -134 -201 -134
-444 1 -647 127 -191 392 -387 642 -475 19 -6 44 -16 55 -20 68 -29 220 -77
315 -100 334 -82 588 -112 950 -112 361 0 670 36 940 109 30 8 69 18 85 22
128 33 328 113 473 188 320 166 526 398 563 636 28 183 -48 376 -213 539 -139
138 -288 231 -538 340 -138 60 -415 138 -614 173 -239 42 -291 45 -710 44
-400 -1 -416 -2 -586 -29z m303 -320 c32 -35 33 -60 8 -115 -22 -50 -69 -91
-122 -106 -35 -11 -43 -10 -66 7 -35 27 -45 67 -32 131 11 56 39 99 73 114 40
17 109 2 139 -31z m1166 -216 c38 -27 61 -89 48 -130 -18 -57 -80 -59 -136 -4
-63 63 -47 150 27 150 21 0 48 -7 61 -16z m-675 -30 c24 -9 9 -24 -24 -24
-105 0 -360 -89 -451 -157 -171 -129 -291 -386 -314 -673 -9 -110 -14 -153
-20 -159 -7 -6 -157 -46 -253 -67 -40 -8 -94 -14 -120 -12 l-47 3 2 39 c2 22
12 58 22 80 11 23 43 91 71 151 29 61 69 146 90 190 93 197 118 288 86 314
-52 43 -207 16 -384 -65 -41 -19 -78 -34 -83 -34 -33 0 27 56 141 129 158 102
407 198 600 230 230 38 641 71 684 55z m326 -58 c71 -18 163 -53 220 -84 121
-66 161 -91 240 -146 127 -89 249 -220 227 -243 -10 -9 -60 18 -132 72 -93 69
-115 60 -115 -50 0 -38 7 -102 15 -140 47 -219 44 -236 -42 -254 -32 -7 -74
-11 -93 -9 -41 4 -41 6 -16 138 36 195 5 347 -105 507 -59 85 -156 146 -312
197 -10 3 -15 10 -12 16 8 14 59 12 125 -4z"/>
<path d="M4580 3013 c0 -90 -48 -227 -115 -328 -50 -76 -148 -178 -232 -241
-80 -60 -221 -148 -288 -178 -22 -10 -67 -31 -100 -47 -33 -16 -64 -29 -68
-29 -5 0 -23 -6 -40 -14 -51 -23 -152 -56 -170 -56 -10 0 -25 -4 -35 -9 -23
-13 -104 -36 -177 -51 -33 -6 -76 -16 -96 -21 -20 -5 -50 -9 -67 -9 -17 0 -43
-5 -59 -11 -15 -6 -50 -13 -78 -15 -27 -3 -75 -9 -105 -14 -30 -5 -107 -12
-170 -16 -330 -19 -355 -22 -125 -18 127 2 262 9 300 14 39 5 108 15 155 21
158 22 443 86 520 117 14 6 57 20 95 32 39 12 84 27 100 35 17 7 53 23 80 35
341 150 584 371 660 600 17 53 34 250 21 250 -3 0 -6 -21 -6 -47z"/>
<path d="M1818 2013 c6 -2 18 -2 25 0 6 3 1 5 -13 5 -14 0 -19 -2 -12 -5z"/>
<path d="M1953 1993 c9 -2 23 -2 30 0 6 3 -1 5 -18 5 -16 0 -22 -2 -12 -5z"/>
<path d="M2143 1968 c20 -7 35 -7 50 0 18 9 14 11 -28 11 -46 -1 -48 -1 -22
-11z"/>
<path d="M958 1718 c-8 -7 -27 -67 -43 -133 -34 -147 -45 -165 -95 -165 -21 0
-43 7 -50 15 -17 21 -37 19 -50 -4 -24 -45 24 -81 107 -81 50 0 64 4 94 29 37
31 48 56 75 181 9 41 20 88 25 103 16 52 -23 86 -63 55z"/>
<path d="M1958 1713 c-14 -17 -24 -50 -47 -155 -6 -24 -17 -73 -25 -110 -18
-76 -14 -98 19 -98 29 0 46 21 56 68 4 20 13 65 21 100 7 34 16 62 20 62 4 0
15 -26 24 -57 20 -72 30 -85 63 -81 19 2 37 20 69 68 24 36 48 67 53 68 13 5
11 -28 -7 -97 -8 -34 -14 -76 -12 -94 2 -27 7 -32 28 -32 17 0 29 8 37 26 19
40 77 315 70 333 -9 23 -68 20 -95 -4 -12 -11 -44 -54 -72 -95 -28 -41 -55
-75 -60 -75 -5 0 -13 12 -16 28 -22 94 -35 136 -45 148 -16 20 -63 17 -81 -3z"/>
<path d="M2727 1718 c-11 -9 -26 -47 -39 -103 -11 -50 -28 -123 -38 -163 -19
-82 -12 -106 31 -100 25 3 58 55 59 94 0 12 7 27 15 34 13 10 19 10 35 -5 11
-10 20 -23 20 -28 0 -5 16 -30 36 -53 35 -43 60 -53 98 -38 25 10 19 29 -20
68 -38 38 -41 64 -9 81 81 42 104 85 82 151 -8 23 -24 44 -38 50 -39 19 -211
27 -232 12z m174 -74 c25 -22 24 -45 -1 -72 -17 -18 -32 -22 -80 -22 -44 0
-60 4 -60 14 0 19 21 79 34 95 14 17 81 8 107 -15z"/>
<path d="M1730 1677 c-11 -19 -31 -39 -45 -45 -28 -13 -35 -52 -9 -52 15 0 16
-9 10 -67 -3 -38 -9 -79 -12 -93 -9 -41 27 -70 84 -70 50 0 72 12 72 41 0 13
-10 19 -32 21 -33 3 -33 3 -32 58 0 30 6 67 12 83 10 23 17 27 51 27 28 0 41
5 45 17 8 20 -18 45 -38 37 -18 -7 -37 19 -34 47 3 20 -2 25 -24 27 -23 3 -32
-3 -48 -31z"/>
<path d="M3761 1683 c-24 -33 -28 -37 -61 -63 l-25 -20 24 -18 c20 -16 23 -25
17 -53 -28 -147 -17 -179 64 -179 34 0 52 5 64 19 21 23 12 45 -15 38 -10 -3
-26 1 -35 7 -14 11 -15 22 -9 62 11 77 28 102 72 106 30 2 39 8 41 24 3 18 -4
23 -32 28 -33 6 -36 10 -36 41 0 30 -3 35 -24 35 -15 0 -33 -11 -45 -27z"/>
<path d="M1073 1628 c-16 -20 -43 -143 -43 -192 0 -34 6 -50 22 -66 27 -25 94
-27 136 -3 29 17 31 17 50 0 10 -9 33 -17 50 -17 32 0 32 1 26 38 -4 23 2 70
15 125 22 93 20 113 -11 123 -30 9 -47 -14 -67 -97 -11 -41 -22 -81 -26 -91
-9 -21 -58 -41 -83 -34 -34 11 -35 38 -7 163 5 22 3 38 -5 48 -15 18 -44 20
-57 3z"/>
<path d="M1438 1624 c-77 -41 -60 -118 35 -158 25 -10 37 -21 37 -35 0 -33
-46 -38 -97 -11 -31 16 -47 20 -54 13 -17 -17 -1 -52 31 -68 40 -21 144 -20
181 2 54 32 45 117 -16 138 -52 18 -75 35 -75 55 0 17 7 20 44 20 26 0 48 -6
56 -15 28 -34 60 -13 44 30 -16 40 -133 58 -186 29z"/>
<path d="M2360 1625 c-9 -11 -8 -20 4 -42 8 -15 22 -73 31 -127 15 -96 15
-101 -3 -125 -14 -19 -30 -27 -60 -29 -34 -3 -42 -7 -42 -23 0 -17 7 -19 69
-19 68 0 70 1 99 38 42 54 184 274 189 293 5 16 -21 49 -38 49 -5 0 -35 -40
-67 -90 -31 -49 -60 -90 -64 -90 -8 0 -14 22 -23 93 -9 70 -63 111 -95 72z"/>
<path d="M3090 1618 c-49 -34 -72 -71 -78 -126 -8 -92 41 -142 140 -142 98 0
158 60 158 160 0 62 -16 92 -60 115 -44 23 -121 19 -160 -7z m134 -57 c39 -43
12 -130 -45 -150 -84 -29 -134 69 -70 138 35 37 87 43 115 12z"/>
<path d="M3435 1628 c-107 -59 -126 -188 -39 -257 30 -24 119 -29 157 -10 111
57 130 201 34 259 -36 22 -119 27 -152 8z m124 -74 c25 -32 26 -55 6 -94 -18
-35 -43 -50 -82 -50 -34 0 -46 8 -62 39 -45 84 80 179 138 105z"/>
<path d="M3964 1621 c-67 -41 -48 -121 37 -152 47 -18 57 -32 39 -54 -17 -21
-46 -19 -98 6 -36 18 -46 19 -52 8 -23 -37 43 -79 125 -79 68 0 112 21 121 57
12 46 -7 75 -69 105 -42 21 -57 34 -55 46 4 23 80 29 98 7 7 -8 21 -15 32 -15
15 0 19 6 16 28 -6 55 -129 83 -194 43z"/>
</g>
</svg>
