<svg width="20" height="20" viewBox="0 0 20 20" fill="none" xmlns="http://www.w3.org/2000/svg">
<circle cx="10" cy="10" r="10" fill="#DF8443"/>
<path d="M9.46735 3.92995C9.77046 3.53362 10.3673 3.53362 10.6705 3.92995C10.9872 4.34408 11.5585 4.46552 12.0163 4.21602C12.4544 3.97724 12.9997 4.22001 13.1154 4.70537C13.2363 5.21252 13.7088 5.55584 14.2285 5.5141C14.7259 5.47416 15.1253 5.91773 15.0335 6.40818C14.9377 6.92066 15.2298 7.4265 15.7215 7.59975C16.1921 7.76555 16.3765 8.33322 16.0933 8.74397C15.7973 9.17317 15.8583 9.75406 16.2371 10.1123C16.5996 10.4552 16.5372 11.0488 16.1113 11.3088C15.6664 11.5806 15.4859 12.1361 15.6862 12.6174C15.8778 13.0781 15.5794 13.595 15.0846 13.6593C14.5676 13.7266 14.1768 14.1606 14.1639 14.6818C14.1517 15.1806 13.6688 15.5315 13.1906 15.389C12.691 15.2401 12.1574 15.4777 11.9337 15.9486C11.7196 16.3993 11.1357 16.5234 10.7568 16.1988C10.3609 15.8595 9.77685 15.8595 9.38095 16.1988C9.00205 16.5234 8.41822 16.3993 8.20413 15.9486C7.98043 15.4777 7.44684 15.2401 6.94718 15.389C6.469 15.5315 5.98612 15.1806 5.97385 14.6818C5.96103 14.1606 5.5702 13.7266 5.05319 13.6593C4.5584 13.595 4.25996 13.0781 4.45164 12.6174C4.65192 12.1361 4.47143 11.5806 4.02646 11.3088C3.60062 11.0488 3.53823 10.4552 3.9007 10.1123C4.27946 9.75406 4.34051 9.17317 4.04452 8.74397C3.76126 8.33322 3.9457 7.76555 4.4163 7.59975C4.90804 7.4265 5.20008 6.92066 5.10426 6.40818C5.01255 5.91773 5.41193 5.47416 5.90929 5.5141C6.42898 5.55584 6.90152 5.21252 7.02242 4.70537C7.13812 4.22001 7.6834 3.97724 8.12151 4.21602C8.57929 4.46552 9.15062 4.34408 9.46735 3.92995Z" fill="#F9EFCA" stroke="#3A3A3A" stroke-width="0.3"/>
<path d="M6.89648 7.95328C6.89648 7.52708 7.03089 7.17572 7.29972 6.89918C7.57178 6.62264 7.91995 6.48438 8.34423 6.48438C8.77499 6.48438 9.12317 6.62427 9.38875 6.90406C9.65757 7.1806 9.79198 7.5401 9.79198 7.98256V8.32904C9.79198 8.75849 9.65595 9.10985 9.38389 9.38314C9.11507 9.65317 8.77176 9.78818 8.35395 9.78818C7.9329 9.78818 7.58473 9.65317 7.30943 9.38314C7.03413 9.10985 6.89648 8.7471 6.89648 8.29488V7.95328ZM7.56692 8.32904C7.56692 8.58281 7.63817 8.79265 7.78068 8.95857C7.92319 9.12124 8.11428 9.20257 8.35395 9.20257C8.5839 9.20257 8.76852 9.12287 8.90779 8.96345C9.05029 8.80403 9.12155 8.58606 9.12155 8.30952V7.95328C9.12155 7.69951 9.05191 7.48967 8.91264 7.32375C8.77337 7.15782 8.5839 7.07486 8.34423 7.07486C8.10456 7.07486 7.91509 7.15782 7.77582 7.32375C7.63655 7.48967 7.56692 7.70602 7.56692 7.9728V8.32904ZM10.341 11.9501C10.341 11.5239 10.4754 11.1741 10.7442 10.9008C11.0163 10.6243 11.3644 10.486 11.7887 10.486C12.213 10.486 12.5612 10.6227 12.8332 10.896C13.1053 11.1692 13.2413 11.532 13.2413 11.9842V12.3307C13.2413 12.7569 13.1053 13.1083 12.8332 13.3848C12.5644 13.6581 12.2195 13.7947 11.7984 13.7947C11.3774 13.7947 11.0292 13.6597 10.7539 13.3897C10.4786 13.1164 10.341 12.7536 10.341 12.3014V11.9501ZM11.0114 12.3307C11.0114 12.5877 11.0826 12.7992 11.2252 12.9651C11.3677 13.1278 11.5588 13.2091 11.7984 13.2091C12.0316 13.2091 12.2178 13.1294 12.3571 12.97C12.4964 12.8073 12.566 12.5877 12.566 12.3112V11.9501C12.566 11.693 12.4948 11.4832 12.3523 11.3205C12.213 11.1579 12.0251 11.0765 11.7887 11.0765C11.5588 11.0765 11.3709 11.1579 11.2252 11.3205C11.0826 11.4799 11.0114 11.6963 11.0114 11.9696V12.3307ZM8.55799 13.1554L8.04788 12.8333L11.5021 7.27983L12.0122 7.60191L8.55799 13.1554Z" fill="#DF8443"/>
</svg>
