<svg width="20" height="20" viewBox="0 0 20 20" fill="none" xmlns="http://www.w3.org/2000/svg">
<circle cx="10" cy="10" r="10" fill="#DF8443"/>
<mask id="path-2-inside-1" fill="white">
<path fill-rule="evenodd" clip-rule="evenodd" d="M11.4706 10.2676C12.5217 9.73166 13.2416 8.63895 13.2416 7.3781C13.2416 5.58793 11.7904 4.13672 10.0003 4.13672C8.2101 4.13672 6.75889 5.58793 6.75889 7.3781C6.75889 8.65998 7.503 9.76806 8.58284 10.294C6.62781 10.9069 5.19327 12.6963 5.10855 14.8327C5.10418 14.9431 5.19413 15.0329 5.30459 15.0329H14.8356C14.9461 15.0329 15.036 14.9431 15.0317 14.8327C14.9457 12.6648 13.4698 10.8542 11.4706 10.2676Z"/>
</mask>
<path fill-rule="evenodd" clip-rule="evenodd" d="M11.4706 10.2676C12.5217 9.73166 13.2416 8.63895 13.2416 7.3781C13.2416 5.58793 11.7904 4.13672 10.0003 4.13672C8.2101 4.13672 6.75889 5.58793 6.75889 7.3781C6.75889 8.65998 7.503 9.76806 8.58284 10.294C6.62781 10.9069 5.19327 12.6963 5.10855 14.8327C5.10418 14.9431 5.19413 15.0329 5.30459 15.0329H14.8356C14.9461 15.0329 15.036 14.9431 15.0317 14.8327C14.9457 12.6648 13.4698 10.8542 11.4706 10.2676Z" fill="#F9EFCA"/>
<path d="M11.4706 10.2676L11.3797 10.0894L10.9316 10.3179L11.4142 10.4595L11.4706 10.2676ZM8.58284 10.294L8.64267 10.4848L9.12255 10.3343L8.67041 10.1141L8.58284 10.294ZM5.10855 14.8327L4.90871 14.8248L5.10855 14.8327ZM15.0317 14.8327L15.2315 14.8248V14.8248L15.0317 14.8327ZM13.0416 7.3781C13.0416 8.56087 12.3665 9.5863 11.3797 10.0894L11.5614 10.4458C12.677 9.87702 13.4416 8.71704 13.4416 7.3781H13.0416ZM10.0003 4.33672C11.68 4.33672 13.0416 5.69839 13.0416 7.3781H13.4416C13.4416 5.47748 11.9009 3.93672 10.0003 3.93672V4.33672ZM6.95889 7.3781C6.95889 5.69839 8.32056 4.33672 10.0003 4.33672V3.93672C8.09964 3.93672 6.55889 5.47748 6.55889 7.3781H6.95889ZM8.67041 10.1141C7.65672 9.62046 6.95889 8.58058 6.95889 7.3781H6.55889C6.55889 8.73937 7.34928 9.91565 8.49527 10.4738L8.67041 10.1141ZM8.52301 10.1031C6.48938 10.7407 4.99686 12.6018 4.90871 14.8248L5.30839 14.8406C5.38968 12.7907 6.76625 11.0731 8.64267 10.4848L8.52301 10.1031ZM4.90871 14.8248C4.89964 15.0535 5.08551 15.2329 5.30459 15.2329V14.8329C5.30442 14.8329 5.30517 14.833 5.30592 14.8338C5.30632 14.8342 5.30701 14.835 5.30759 14.8365C5.30824 14.8381 5.30843 14.8397 5.30839 14.8406L4.90871 14.8248ZM5.30459 15.2329H14.8356V14.8329H5.30459V15.2329ZM14.8356 15.2329C15.0547 15.2329 15.2406 15.0535 15.2315 14.8248L14.8318 14.8406C14.8318 14.8397 14.832 14.8381 14.8326 14.8365C14.8332 14.835 14.8339 14.8342 14.8343 14.8338C14.835 14.833 14.8358 14.8329 14.8356 14.8329V15.2329ZM15.2315 14.8248C15.1421 12.5691 13.6065 10.6859 11.5269 10.0757L11.4142 10.4595C13.3331 11.0225 14.7493 12.7605 14.8318 14.8406L15.2315 14.8248Z" fill="black" mask="url(#path-2-inside-1)"/>
<path d="M13.6553 15.7246V13.9411C13.6553 11.5035 15.6314 9.52734 18.0691 9.52734V9.52734M18.0691 9.52734L16.522 11.0542M18.0691 9.52734L16.522 8.00047" stroke="#3A3A3A" stroke-width="0.4" stroke-linecap="round" stroke-linejoin="round"/>
</svg>
