<svg width="24" height="25" viewBox="0 0 24 25" fill="none" xmlns="http://www.w3.org/2000/svg">
<g clip-path="url(#clip0_2379_1661)">
<rect width="24" height="24" transform="translate(0 0.482422)" fill="#ECECEC"/>
<path d="M24 12.4824C24 5.855 18.6274 0.482422 12 0.482422C5.37258 0.482422 0 5.855 0 12.4824C0 18.4719 4.3882 23.4364 10.125 24.3366V15.9512H7.07812V12.4824H10.125V9.83867C10.125 6.83117 11.9166 5.16992 14.6576 5.16992C15.9701 5.16992 17.3438 5.4043 17.3438 5.4043V8.35742H15.8306C14.34 8.35742 13.875 9.2825 13.875 10.2324V12.4824H17.2031L16.6711 15.9512H13.875V24.3366C19.6118 23.4364 24 18.4719 24 12.4824Z" fill="#AC1715"/>
</g>
<defs>
<clipPath id="clip0_2379_1661">
<rect width="24" height="24" fill="white" transform="translate(0 0.482422)"/>
</clipPath>
</defs>
</svg>
