<svg width="19" height="18" viewBox="0 0 19 18" fill="none" xmlns="http://www.w3.org/2000/svg">
<g clip-path="url(#clip0)">
<path d="M18.8219 17.0192L13.8462 12.1846C13.775 12.1154 13.68 12.0692 13.585 12.0462C14.63 10.7769 15.2594 9.16154 15.2594 7.41923C15.2713 3.32308 11.8394 0 7.63562 0C3.43187 0 0 3.32308 0 7.41923C0 11.5154 3.42 14.8385 7.63562 14.8385C9.66625 14.8385 11.5069 14.0538 12.8844 12.7962C12.9081 12.8769 12.9556 12.9462 13.015 13.0038L17.9906 17.8385C18.1094 17.9538 18.2638 18.0115 18.4062 18.0115C18.5487 18.0115 18.715 17.9538 18.8219 17.8385C19.0594 17.6077 19.0594 17.25 18.8219 17.0192ZM7.63562 13.6846C4.085 13.6846 1.1875 10.8692 1.1875 7.41923C1.1875 3.96923 4.085 1.15385 7.63562 1.15385C11.1862 1.15385 14.0837 3.96923 14.0837 7.41923C14.0837 10.8692 11.1862 13.6846 7.63562 13.6846Z" fill="#737373"/>
</g>
<defs>
<clipPath id="clip0">
<rect width="19" height="18" fill="white"/>
</clipPath>
</defs>
</svg>
