<svg width="38" height="38" viewBox="0 0 38 38" fill="none" xmlns="http://www.w3.org/2000/svg">
<circle cx="19" cy="19" r="19" fill="#DF8341"/>
<path fill-rule="evenodd" clip-rule="evenodd" d="M19.4628 8.49641C13.9175 8.49641 9.42219 12.9918 9.42219 18.5371C9.42219 24.0824 13.9175 28.5777 19.4628 28.5777C25.0081 28.5777 29.5035 24.0824 29.5035 18.5371C29.5035 12.9918 25.0081 8.49641 19.4628 8.49641ZM7.41406 18.5371C7.41406 11.8827 12.8085 6.48828 19.4628 6.48828C26.1172 6.48828 31.5116 11.8827 31.5116 18.5371C31.5116 25.1914 26.1172 30.5858 19.4628 30.5858C12.8085 30.5858 7.41406 25.1914 7.41406 18.5371Z" fill="#FAF3CF"/>
<path fill-rule="evenodd" clip-rule="evenodd" d="M18.9459 12.0493C19.5005 12.0493 19.95 12.4988 19.95 13.0533V18.6618L23.1702 21.882C23.5623 22.2741 23.5623 22.9098 23.1702 23.3019C22.778 23.694 22.1423 23.694 21.7502 23.3019L18.236 19.7877C18.0477 19.5994 17.9419 19.344 17.9419 19.0777V13.0533C17.9419 12.4988 18.3914 12.0493 18.9459 12.0493Z" fill="#FAF3CF"/>
<path d="M19.95 18.6618H19.65V18.7861L19.7379 18.8739L19.95 18.6618ZM23.1702 21.882L22.958 22.0941H22.958L23.1702 21.882ZM23.1702 23.3019L22.958 23.0898H22.958L23.1702 23.3019ZM21.7502 23.3019L21.9623 23.0898H21.9623L21.7502 23.3019ZM18.236 19.7877L18.4481 19.5756V19.5756L18.236 19.7877ZM9.72219 18.5371C9.72219 13.1574 14.0832 8.79641 19.4628 8.79641V8.19641C13.7519 8.19641 9.12219 12.8261 9.12219 18.5371H9.72219ZM19.4628 28.2777C14.0832 28.2777 9.72219 23.9167 9.72219 18.5371H9.12219C9.12219 24.248 13.7519 28.8777 19.4628 28.8777V28.2777ZM29.2035 18.5371C29.2035 23.9167 24.8425 28.2777 19.4628 28.2777V28.8777C25.1738 28.8777 29.8035 24.248 29.8035 18.5371H29.2035ZM19.4628 8.79641C24.8425 8.79641 29.2035 13.1574 29.2035 18.5371H29.8035C29.8035 12.8261 25.1738 8.19641 19.4628 8.19641V8.79641ZM19.4628 6.18828C12.6428 6.18828 7.11406 11.717 7.11406 18.5371H7.71406C7.71406 12.0484 12.9742 6.78828 19.4628 6.78828V6.18828ZM31.8116 18.5371C31.8116 11.717 26.2829 6.18828 19.4628 6.18828V6.78828C25.9515 6.78828 31.2116 12.0484 31.2116 18.5371H31.8116ZM19.4628 30.8858C26.2829 30.8858 31.8116 25.3571 31.8116 18.5371H31.2116C31.2116 25.0257 25.9515 30.2858 19.4628 30.2858V30.8858ZM7.11406 18.5371C7.11406 25.3571 12.6428 30.8858 19.4628 30.8858V30.2858C12.9742 30.2858 7.71406 25.0257 7.71406 18.5371H7.11406ZM20.25 13.0533C20.25 12.3331 19.6662 11.7493 18.9459 11.7493V12.3493C19.3348 12.3493 19.65 12.6645 19.65 13.0533H20.25ZM20.25 18.6618V13.0533H19.65V18.6618H20.25ZM23.3823 21.6698L20.1621 18.4497L19.7379 18.8739L22.958 22.0941L23.3823 21.6698ZM23.3823 23.5141C23.8916 23.0048 23.8916 22.1791 23.3823 21.6698L22.958 22.0941C23.233 22.369 23.233 22.8148 22.958 23.0898L23.3823 23.5141ZM21.5381 23.5141C22.0473 24.0233 22.873 24.0233 23.3823 23.5141L22.958 23.0898C22.6831 23.3647 22.2373 23.3647 21.9623 23.0898L21.5381 23.5141ZM18.0238 19.9998L21.5381 23.5141L21.9623 23.0898L18.4481 19.5756L18.0238 19.9998ZM17.6419 19.0777C17.6419 19.4236 17.7793 19.7553 18.0238 19.9998L18.4481 19.5756C18.3161 19.4435 18.2419 19.2644 18.2419 19.0777H17.6419ZM17.6419 13.0533V19.0777H18.2419V13.0533H17.6419ZM18.9459 11.7493C18.2257 11.7493 17.6419 12.3331 17.6419 13.0533H18.2419C18.2419 12.6645 18.5571 12.3493 18.9459 12.3493V11.7493Z" fill="#483529"/>
</svg>
