<svg width="24" height="25" viewBox="0 0 24 25" fill="none" xmlns="http://www.w3.org/2000/svg">
<g clip-path="url(#clip0_2379_1663)">
<path d="M12 2.64336C15.2063 2.64336 15.5859 2.65742 16.8469 2.71367C18.0188 2.76523 18.6516 2.96211 19.0734 3.12617C19.6313 3.3418 20.0344 3.6043 20.4516 4.02148C20.8734 4.44336 21.1313 4.8418 21.3469 5.39961C21.5109 5.82148 21.7078 6.45898 21.7594 7.62617C21.8156 8.8918 21.8297 9.27148 21.8297 12.473C21.8297 15.6793 21.8156 16.059 21.7594 17.3199C21.7078 18.4918 21.5109 19.1246 21.3469 19.5465C21.1313 20.1043 20.8687 20.5074 20.4516 20.9246C20.0297 21.3465 19.6313 21.6043 19.0734 21.8199C18.6516 21.984 18.0141 22.1809 16.8469 22.2324C15.5813 22.2887 15.2016 22.3027 12 22.3027C8.79375 22.3027 8.41406 22.2887 7.15313 22.2324C5.98125 22.1809 5.34844 21.984 4.92656 21.8199C4.36875 21.6043 3.96563 21.3418 3.54844 20.9246C3.12656 20.5027 2.86875 20.1043 2.65313 19.5465C2.48906 19.1246 2.29219 18.4871 2.24063 17.3199C2.18438 16.0543 2.17031 15.6746 2.17031 12.473C2.17031 9.2668 2.18438 8.88711 2.24063 7.62617C2.29219 6.4543 2.48906 5.82148 2.65313 5.39961C2.86875 4.8418 3.13125 4.43867 3.54844 4.02148C3.97031 3.59961 4.36875 3.3418 4.92656 3.12617C5.34844 2.96211 5.98594 2.76523 7.15313 2.71367C8.41406 2.65742 8.79375 2.64336 12 2.64336ZM12 0.482422C8.74219 0.482422 8.33438 0.496484 7.05469 0.552734C5.77969 0.608984 4.90313 0.815234 4.14375 1.11055C3.35156 1.41992 2.68125 1.82773 2.01563 2.49805C1.34531 3.16367 0.9375 3.83398 0.628125 4.62148C0.332812 5.38555 0.126563 6.25742 0.0703125 7.53242C0.0140625 8.8168 0 9.22461 0 12.4824C0 15.7402 0.0140625 16.148 0.0703125 17.4277C0.126563 18.7027 0.332812 19.5793 0.628125 20.3387C0.9375 21.1309 1.34531 21.8012 2.01563 22.4668C2.68125 23.1324 3.35156 23.5449 4.13906 23.8496C4.90313 24.1449 5.775 24.3512 7.05 24.4074C8.32969 24.4637 8.7375 24.4777 11.9953 24.4777C15.2531 24.4777 15.6609 24.4637 16.9406 24.4074C18.2156 24.3512 19.0922 24.1449 19.8516 23.8496C20.6391 23.5449 21.3094 23.1324 21.975 22.4668C22.6406 21.8012 23.0531 21.1309 23.3578 20.3434C23.6531 19.5793 23.8594 18.7074 23.9156 17.4324C23.9719 16.1527 23.9859 15.7449 23.9859 12.4871C23.9859 9.2293 23.9719 8.82148 23.9156 7.5418C23.8594 6.2668 23.6531 5.39023 23.3578 4.63086C23.0625 3.83398 22.6547 3.16367 21.9844 2.49805C21.3188 1.83242 20.6484 1.41992 19.8609 1.11523C19.0969 0.819922 18.225 0.613672 16.95 0.557422C15.6656 0.496484 15.2578 0.482422 12 0.482422Z" fill="#AC1715"/>
<path d="M12 6.31836C8.59688 6.31836 5.83594 9.0793 5.83594 12.4824C5.83594 15.8855 8.59688 18.6465 12 18.6465C15.4031 18.6465 18.1641 15.8855 18.1641 12.4824C18.1641 9.0793 15.4031 6.31836 12 6.31836ZM12 16.4809C9.79219 16.4809 8.00156 14.6902 8.00156 12.4824C8.00156 10.2746 9.79219 8.48398 12 8.48398C14.2078 8.48398 15.9984 10.2746 15.9984 12.4824C15.9984 14.6902 14.2078 16.4809 12 16.4809Z" fill="#AC1715"/>
<path d="M19.8469 6.07481C19.8469 6.87168 19.2 7.51387 18.4078 7.51387C17.6109 7.51387 16.9688 6.86699 16.9688 6.07481C16.9688 5.27793 17.6156 4.63574 18.4078 4.63574C19.2 4.63574 19.8469 5.28262 19.8469 6.07481Z" fill="#AC1715"/>
</g>
<defs>
<clipPath id="clip0_2379_1663">
<rect width="24" height="24" fill="white" transform="translate(0 0.482422)"/>
</clipPath>
</defs>
</svg>
