<svg width="25" height="25" viewBox="0 0 25 25" fill="none" xmlns="http://www.w3.org/2000/svg">
<g clip-path="url(#clip0_2379_1664)">
<path d="M22.7234 0.482422H2.27187C1.29219 0.482422 0.5 1.25586 0.5 2.21211V22.748C0.5 23.7043 1.29219 24.4824 2.27187 24.4824H22.7234C23.7031 24.4824 24.5 23.7043 24.5 22.7527V2.21211C24.5 1.25586 23.7031 0.482422 22.7234 0.482422ZM7.62031 20.934H4.05781V9.47773H7.62031V20.934ZM5.83906 7.9168C4.69531 7.9168 3.77188 6.99336 3.77188 5.8543C3.77188 4.71523 4.69531 3.7918 5.83906 3.7918C6.97813 3.7918 7.90156 4.71523 7.90156 5.8543C7.90156 6.98867 6.97813 7.9168 5.83906 7.9168ZM20.9516 20.934H17.3937V15.3652C17.3937 14.0387 17.3703 12.3277 15.5422 12.3277C13.6906 12.3277 13.4094 13.7762 13.4094 15.2715V20.934H9.85625V9.47773H13.2687V11.0434H13.3156C13.7891 10.1434 14.9516 9.1918 16.6813 9.1918C20.2859 9.1918 20.9516 11.5637 20.9516 14.648V20.934Z" fill="#AC1715"/>
</g>
<defs>
<clipPath id="clip0_2379_1664">
<rect width="24" height="24" fill="white" transform="translate(0.5 0.482422)"/>
</clipPath>
</defs>
</svg>
