<svg width="25" height="25" viewBox="0 0 25 25" fill="none" xmlns="http://www.w3.org/2000/svg">
<g clip-path="url(#clip0_2379_1662)">
<path d="M8.05016 22.2331C17.1045 22.2331 22.0583 14.7299 22.0583 8.22502C22.0583 8.01408 22.0536 7.79845 22.0442 7.58751C23.0079 6.89062 23.8395 6.02741 24.5 5.03845C23.6025 5.43775 22.6496 5.69854 21.6739 5.81189C22.7013 5.19606 23.4705 4.22863 23.8391 3.08892C22.8726 3.66171 21.8156 4.06577 20.7134 4.28376C19.9708 3.49472 18.989 2.97227 17.9197 2.79721C16.8504 2.62214 15.7532 2.8042 14.7977 3.31525C13.8423 3.8263 13.0818 4.63786 12.6338 5.62447C12.1859 6.61107 12.0754 7.71777 12.3195 8.77345C10.3625 8.67524 8.44794 8.16686 6.69998 7.28125C4.95203 6.39565 3.40969 5.15259 2.17297 3.63267C1.5444 4.7164 1.35206 5.9988 1.63503 7.21925C1.918 8.43969 2.65506 9.5066 3.69641 10.2031C2.91463 10.1783 2.14998 9.96783 1.46563 9.58908V9.65001C1.46492 10.7873 1.8581 11.8897 2.57831 12.7699C3.29852 13.6501 4.30132 14.2537 5.41625 14.4781C4.69206 14.6763 3.93198 14.7052 3.19484 14.5625C3.50945 15.5406 4.12157 16.396 4.94577 17.0095C5.76997 17.6229 6.76512 17.9638 7.79234 17.9844C6.04842 19.3543 3.89417 20.0973 1.67656 20.0938C1.28329 20.0932 0.890399 20.0691 0.5 20.0216C2.75286 21.4669 5.37353 22.2345 8.05016 22.2331Z" fill="#AC1715"/>
</g>
<defs>
<clipPath id="clip0_2379_1662">
<rect width="24" height="24" fill="white" transform="translate(0.5 0.482422)"/>
</clipPath>
</defs>
</svg>
