<svg width="8" height="14" viewBox="0 0 8 14" fill="none" xmlns="http://www.w3.org/2000/svg">
<path d="M4 0C1.85391 0 0.104348 1.7045 0.0104348 3.843C0.00695652 3.843 0.00347826 3.8465 0 3.85C0 3.899 0 3.955 0 4.0145C0 4.018 0 4.0215 0 4.025C0 4.032 0 4.0355 0 4.0425C0.013913 5.222 0.229565 8.0465 4.17391 14C7.65217 7.7 8 5.6 8 4.025C8 1.8025 6.2087 0 4 0ZM4 7C2.56 7 1.3913 5.824 1.3913 4.375C1.3913 2.926 2.56 1.75 4 1.75C5.44 1.75 6.6087 2.926 6.6087 4.375C6.6087 5.824 5.44 7 4 7Z" fill="#737373"/>
</svg>
